<svg width="32" height="32" viewBox="0 0 32 32" fill="none" xmlns="http://www.w3.org/2000/svg">
<path d="M28 13.25H26.7213C26.5228 10.5422 25.3071 8.00976 23.3183 6.1614C21.3296 4.31305 18.7151 3.28568 16 3.28568C13.2849 3.28568 10.6704 4.31305 8.68165 6.1614C6.69289 8.00976 5.47719 10.5422 5.27875 13.25H4C3.80109 13.25 3.61032 13.329 3.46967 13.4697C3.32902 13.6103 3.25 13.8011 3.25 14C3.25446 16.3581 3.91056 18.6691 5.14585 20.6778C6.38114 22.6864 8.14755 24.3146 10.25 25.3825V26C10.25 26.4641 10.4344 26.9092 10.7626 27.2374C11.0908 27.5656 11.5359 27.75 12 27.75H20C20.4641 27.75 20.9092 27.5656 21.2374 27.2374C21.5656 26.9092 21.75 26.4641 21.75 26V25.3825C23.8525 24.3146 25.6189 22.6864 26.8541 20.6778C28.0894 18.6691 28.7455 16.3581 28.75 14C28.75 13.8011 28.671 13.6103 28.5303 13.4697C28.3897 13.329 28.1989 13.25 28 13.25ZM21.78 6.78625C22.1429 7.07691 22.4835 7.39448 22.7987 7.73625C21.4066 8.16958 20.1172 8.88195 19.0094 9.82991C17.9015 10.7779 16.9984 11.9416 16.355 13.25H12.1675C12.7582 11.3687 13.9328 9.7245 15.5209 8.55576C17.109 7.38702 19.0282 6.75453 21 6.75C21.26 6.75 21.5212 6.76375 21.78 6.78625ZM23.7875 9.0175C24.6052 10.2892 25.0964 11.743 25.2175 13.25H18.06C18.6871 12.2006 19.5162 11.2861 20.4994 10.5595C21.4826 9.83298 22.6002 9.30884 23.7875 9.0175ZM16 4.75C17.1458 4.74813 18.2819 4.96009 19.35 5.375C17.2869 5.70066 15.3627 6.61809 13.8109 8.01596C12.259 9.41383 11.1462 11.2321 10.6075 13.25H6.7825C6.97339 10.9355 8.02684 8.77726 9.73407 7.20293C11.4413 5.62859 13.6777 4.75311 16 4.75ZM20.6875 24.23C20.5568 24.2899 20.4462 24.386 20.3686 24.507C20.291 24.628 20.2499 24.7688 20.25 24.9125V26C20.25 26.0663 20.2237 26.1299 20.1768 26.1768C20.1299 26.2237 20.0663 26.25 20 26.25H12C11.9337 26.25 11.8701 26.2237 11.8232 26.1768C11.7763 26.1299 11.75 26.0663 11.75 26V24.9125C11.7501 24.7688 11.709 24.628 11.6314 24.507C11.5538 24.386 11.4432 24.2899 11.3125 24.23C9.47265 23.3815 7.89493 22.0537 6.74472 20.3858C5.59451 18.7179 4.91416 16.7713 4.775 14.75H27.225C27.0858 16.7713 26.4055 18.7179 25.2553 20.3858C24.1051 22.0537 22.5273 23.3815 20.6875 24.23Z" fill="#F21E84"/>
</svg>
