<svg width="59" height="59" viewBox="0 0 59 59" fill="none" xmlns="http://www.w3.org/2000/svg">
<path d="M29.3756 0.00264276C28.8323 0.00264276 28.281 0.00676783 27.7415 0.0393928C26.5331 0.105893 25.3449 0.271893 24.1796 0.480018C24.0506 0.503018 23.9226 0.528768 23.7941 0.553518C23.6839 0.574768 23.5734 0.586018 23.4636 0.608518C23.4024 0.619143 23.3411 0.632268 23.2801 0.645268C23.2191 0.658268 23.1576 0.668643 23.0964 0.682018C22.4545 0.821893 21.8124 0.978268 21.187 1.15939C21.1258 1.17664 21.0644 1.19627 21.0033 1.21439C20.9719 1.22377 20.943 1.24127 20.9116 1.25114C20.821 1.27827 20.7264 1.29652 20.6361 1.32452C20.4639 1.38289 20.2946 1.45077 20.122 1.50814C19.7586 1.62877 19.3957 1.74102 19.0387 1.87539C18.9946 1.88852 18.9541 1.91502 18.9102 1.93039C18.3701 2.13652 17.8372 2.37314 17.313 2.60977C16.7797 2.85027 16.2496 3.09164 15.734 3.36252C15.2176 3.63496 14.7094 3.92271 14.2101 4.22539C14.1866 4.23952 14.1605 4.24802 14.1362 4.26214C13.6627 4.54872 13.1974 4.84872 12.7409 5.16177C11.9834 5.68302 11.2596 6.24452 10.5559 6.83252C10.2887 7.05426 10.0256 7.28075 9.7665 7.51189C9.71875 7.55502 9.6675 7.59689 9.61963 7.64039C9.34288 7.89202 9.07863 8.14952 8.81175 8.41164C8.77488 8.44777 8.73875 8.48527 8.70162 8.52164C8.33687 8.88314 7.982 9.24327 7.63663 9.62327C7.42813 9.85227 7.231 10.0855 7.03075 10.321C6.83088 10.5551 6.63575 10.7966 6.44325 11.037C6.05431 11.5208 5.68079 12.0168 5.32325 12.5243C5.09412 12.8506 4.87825 13.1796 4.66237 13.5156C4.64075 13.5484 4.61013 13.5744 4.5885 13.6075C4.54517 13.6745 4.50229 13.7418 4.45988 13.8094C4.44363 13.8351 4.42112 13.8569 4.40487 13.8829C4.35275 13.9666 4.30837 14.0551 4.25812 14.1399C4.06383 14.4678 3.87407 14.7983 3.68888 15.1314C3.64388 15.2128 3.58662 15.2881 3.542 15.3701V15.3883C3.31875 15.7999 3.10325 16.2136 2.8995 16.6368C2.69737 17.0568 2.51275 17.4748 2.33038 17.9036C2.279 18.0241 2.233 18.1495 2.18337 18.2709C2.07262 18.5396 1.95613 18.8061 1.85288 19.0788C1.79588 19.2309 1.74225 19.3844 1.68762 19.5378C1.64398 19.6599 1.60115 19.7822 1.55912 19.9049H1.54087C1.48575 20.0673 1.44638 20.2371 1.394 20.4006C1.37875 20.4486 1.37237 20.4994 1.35775 20.5475C1.34775 20.5791 1.33062 20.6076 1.32125 20.6394C1.25787 20.8526 1.19937 21.0671 1.13762 21.2819V21.3003C1.12825 21.3258 1.10825 21.3478 1.10125 21.3738C1.07887 21.4519 1.06775 21.5338 1.046 21.6125C0.977875 21.8619 0.905875 22.1131 0.844125 22.3651C0.825875 22.4389 0.806625 22.5119 0.788875 22.5855C0.766 22.6823 0.755375 22.7823 0.733625 22.8793C0.646046 23.2693 0.566487 23.661 0.495 24.0543C0.4845 24.1101 0.468 24.1638 0.458 24.2196C0.451625 24.2443 0.443875 24.2684 0.43975 24.293C0.383375 24.6173 0.33875 24.9383 0.292875 25.2661C0.292875 25.2849 0.277 25.302 0.27475 25.3214C0.257625 25.4454 0.235375 25.5639 0.2195 25.6885H0.237625C0.185949 26.1037 0.143106 26.52 0.109125 26.937C0.102875 26.9799 0.0945001 27.0225 0.0910001 27.0655H0.0727501C0.0527501 27.3203 0.0475 27.5799 0.0365 27.8368C0.0365 27.8491 0.037 27.8614 0.0365 27.8731C0.036125 27.8794 0.036625 27.8855 0.0365 27.8914C0.01175 28.386 0 28.8776 0 29.3785V29.3968C0.00025 29.8975 0.01175 30.3893 0.036375 30.8839C0.036625 30.8901 0.036125 30.8963 0.036375 30.9021C0.054 31.2706 0.07875 31.639 0.10975 32.0036C0.11975 32.1199 0.135625 32.2358 0.14625 32.3524V32.4259C0.15675 32.5365 0.17025 32.6471 0.1825 32.7565C0.207875 32.979 0.243625 33.1974 0.274375 33.4174C0.29975 33.6014 0.319125 33.7854 0.347875 33.9681C0.354125 34.0046 0.36025 34.0418 0.366 34.0784C0.43475 34.5068 0.499375 34.9233 0.586375 35.3453C0.68075 35.8003 0.78325 36.257 0.8985 36.704C0.90475 36.7111 0.913125 36.7151 0.916625 36.7221V36.7404C1.0245 37.1555 1.14037 37.5624 1.26537 37.9705C1.28075 38.0205 1.30487 38.0674 1.32075 38.1174C1.43775 38.4874 1.5585 38.8546 1.68787 39.219C1.70375 39.2631 1.72725 39.3036 1.74312 39.3475C1.7825 39.4566 1.81263 39.5694 1.85313 39.678C1.92486 39.8684 1.99832 40.0582 2.0735 40.2473C2.14925 40.4373 2.23288 40.6284 2.31225 40.8163C2.49737 41.2556 2.69326 41.6902 2.89975 42.1199C3.07738 42.4899 3.25787 42.8611 3.45062 43.2214C3.48037 43.2773 3.51188 43.3314 3.54238 43.3868V43.4049C3.70963 43.7129 3.879 44.0033 4.0565 44.3045C4.12037 44.412 4.19363 44.5113 4.2585 44.6166C4.41688 44.8738 4.56988 45.1329 4.73588 45.3879C4.77188 45.443 4.80962 45.4979 4.84587 45.553C4.99462 45.778 5.15037 45.9934 5.305 46.214C5.3725 46.3113 5.438 46.4113 5.507 46.5078C5.6145 46.6575 5.727 46.8008 5.83737 46.9484C5.99737 47.1631 6.14925 47.3818 6.31487 47.591C6.33362 47.6145 6.35175 47.6404 6.36975 47.6645C6.45888 47.7768 6.55438 47.884 6.64513 47.9949C6.69113 48.0519 6.74512 48.1036 6.792 48.1601C6.92262 48.3174 7.04325 48.483 7.17762 48.6376C7.32587 48.8084 7.48575 48.9668 7.6365 49.1333C7.77888 49.2904 7.91188 49.456 8.05888 49.6106C8.07325 49.6265 8.0985 49.6319 8.11388 49.6476C8.276 49.8176 8.4435 49.9771 8.60962 50.1433C8.7215 50.2576 8.82463 50.3806 8.94013 50.492C9.01388 50.5645 9.08512 50.6411 9.1605 50.7124C9.30825 50.8525 9.46625 50.9818 9.61925 51.1164C9.74963 51.2309 9.87475 51.351 10.005 51.4651C10.0139 51.4706 10.0166 51.4776 10.023 51.4834C10.1316 51.5785 10.2435 51.6651 10.3535 51.7588C10.5181 51.8988 10.6814 52.0445 10.8492 52.181C11.1176 52.4001 11.3994 52.6138 11.6754 52.8236C11.7311 52.8661 11.7847 52.9105 11.8405 52.9523C11.8756 52.9781 11.9154 52.9998 11.9509 53.0256C12.2801 53.2688 12.6025 53.5121 12.9421 53.7416C13.286 53.9758 13.6349 54.2023 13.9888 54.421C14.0078 54.4328 14.0248 54.4463 14.0438 54.4574L14.1355 54.5126C14.3666 54.6531 14.598 54.7824 14.8333 54.9166C15.0091 55.0169 15.188 55.1126 15.3657 55.2104C15.4761 55.2711 15.5845 55.3353 15.6963 55.394C15.9876 55.5478 16.28 55.6905 16.5775 55.8346C16.5945 55.8428 16.6152 55.8446 16.6325 55.8529C16.8274 55.9458 17.0231 56.0388 17.22 56.1283C17.3619 56.1929 17.4994 56.2678 17.6421 56.3303C17.738 56.372 17.8384 56.4026 17.9359 56.4403C18.0234 56.4739 18.1068 56.5149 18.193 56.5506C18.4845 56.6706 18.778 56.7884 19.0744 56.8994C19.141 56.9246 19.2093 56.9481 19.2763 56.9729C19.2943 56.9791 19.3132 56.9845 19.3312 56.991C19.3437 56.9973 19.3555 57.0045 19.3681 57.0093C19.6716 57.1193 19.9781 57.2213 20.2861 57.3213C20.3709 57.3488 20.4582 57.3678 20.5432 57.3948L20.782 57.4681C20.9354 57.5156 21.086 57.5706 21.2409 57.615C21.5028 57.6904 21.7656 57.7673 22.0304 57.8354C22.4187 57.9356 22.8111 58.0264 23.2054 58.1108C23.2604 58.1225 23.3154 58.136 23.3706 58.1473C23.4381 58.1614 23.5054 58.1708 23.5726 58.1835C24.0122 58.2719 24.4482 58.354 24.8946 58.4223C25.295 58.4836 25.7009 58.5243 26.1064 58.5691C26.1496 58.5754 26.1919 58.5833 26.2348 58.5874C26.3444 58.599 26.4555 58.6136 26.5654 58.6236C26.6391 58.631 26.7126 58.6361 26.7857 58.6419C27.0664 58.6666 27.3473 58.6806 27.6301 58.6971C27.7095 58.7025 27.7895 58.7113 27.8689 58.7154C28.0155 58.7226 28.1625 58.7283 28.3096 58.7335C28.665 58.7465 29.0159 58.7518 29.3745 58.7518C29.8815 58.7518 30.3793 58.7405 30.88 58.7148C31.3749 58.69 31.8606 58.6538 32.3488 58.6046H32.385C32.7265 58.5694 33.075 58.5226 33.413 58.4761C33.6522 58.4425 33.891 58.4057 34.1292 58.3659C34.2156 58.3519 34.3002 58.3443 34.3861 58.3296C34.4975 58.3101 34.6056 58.2949 34.7166 58.2743C35.0766 58.208 35.4445 58.1335 35.7999 58.054C35.8736 58.0375 35.947 58.0158 36.0202 57.9988C36.2244 57.9518 36.4248 57.9008 36.6261 57.8519C36.6694 57.8414 36.7117 57.826 36.7546 57.8155C36.815 57.8001 36.8781 57.7949 36.9383 57.7791C37.0548 57.7479 37.1711 57.7198 37.287 57.6873C37.3914 57.6585 37.4951 57.6258 37.5991 57.5955C37.7725 57.5449 37.9413 57.4831 38.1133 57.4303C38.2409 57.3909 38.372 57.3615 38.4987 57.32C38.5114 57.3146 38.5221 57.306 38.5358 57.3019C38.8486 57.1991 39.1636 57.0844 39.472 56.9714L39.7658 56.8611C39.877 56.8189 39.9859 56.776 40.0962 56.7326C40.486 56.5799 40.8716 56.4058 41.253 56.2369C41.3134 56.2106 41.3766 56.1906 41.4366 56.1635L41.6019 56.0901C42.0919 55.8649 42.5755 55.6262 43.0522 55.3741C44.1172 54.8129 45.1359 54.1845 46.1185 53.5013C46.3971 53.3075 46.673 53.1168 46.9448 52.9138L47.165 52.7485C47.2163 52.7091 47.2604 52.6598 47.3119 52.62C47.6012 52.3963 47.8941 52.1748 48.1748 51.9406C48.8033 51.4153 49.4097 50.864 49.9925 50.2883C50.024 50.2578 50.0538 50.2273 50.0843 50.1964C50.1023 50.1783 50.1213 50.1601 50.1393 50.1413C50.4396 49.8417 50.7334 49.5356 51.0205 49.2233C51.0503 49.1915 51.0835 49.1635 51.1123 49.1314C51.6863 48.5 52.2285 47.8283 52.7463 47.1485C53.0177 46.7935 53.2809 46.4323 53.5358 46.0653C53.8286 45.6421 54.1097 45.2188 54.3804 44.78C54.4155 44.7241 54.456 44.6706 54.4905 44.6148C54.5899 44.4513 54.688 44.2846 54.7842 44.119C54.9174 43.8994 55.047 43.6833 55.1699 43.4581C55.1806 43.4388 55.1961 43.4223 55.2069 43.4029V43.3846C55.4394 42.9565 55.6561 42.5219 55.8677 42.0811C56.0627 41.6738 56.26 41.2499 56.4369 40.8326V40.8144C56.4602 40.7591 56.4874 40.7044 56.5107 40.6491C56.6729 40.2611 56.826 39.8693 56.9699 39.4741C57.0185 39.3411 57.0519 39.2041 57.0983 39.0703C57.1876 38.8144 57.2734 38.5573 57.3554 38.299C57.4829 37.8984 57.6119 37.4953 57.7225 37.0874C57.8322 36.683 57.9238 36.2681 58.0163 35.8571C58.1246 35.3764 58.2255 34.8961 58.31 34.4066V34.3885C58.3785 33.9913 58.4414 33.5976 58.4938 33.1951C58.5063 33.0971 58.5189 32.9995 58.5298 32.9014C58.5829 32.4536 58.6251 31.9964 58.6581 31.5426C58.7086 30.8505 58.7482 30.1543 58.75 29.4496V29.3763C58.75 27.5171 58.5661 25.7048 58.2359 23.9416C58.2062 23.783 58.1765 23.6218 58.1441 23.4641C58.1116 23.3044 58.0694 23.1456 58.0339 22.9869C57.6264 21.1519 57.0595 19.3688 56.3264 17.6808C56.2642 17.5374 56.1901 17.4 56.1245 17.2585C56.0311 17.0573 55.9447 16.8525 55.849 16.6526C55.831 16.6155 55.8112 16.5798 55.794 16.5424V16.524C55.6067 16.1378 55.4095 15.7626 55.2065 15.3858V15.3674C55.0104 15.0064 54.7929 14.6541 54.5822 14.3024C54.5525 14.2534 54.5201 14.2045 54.4905 14.1556C54.4815 14.1519 54.4995 14.14 54.4905 14.1373C54.301 13.8254 54.1036 13.5235 53.903 13.2193C53.3994 12.4539 52.8602 11.7126 52.2873 10.9978C51.7445 10.3219 51.161 9.67639 50.5615 9.05152C50.5435 9.03289 50.5245 9.01502 50.5065 8.99652L50.4696 8.95977C50.17 8.65014 49.8645 8.35627 49.5516 8.06002C48.6372 7.19452 47.6702 6.37989 46.6506 5.63652C45.9929 5.15689 45.3286 4.70264 44.6311 4.27777C44.6221 4.27377 44.6202 4.26377 44.6131 4.25952C44.0646 3.92627 43.4952 3.62077 42.924 3.32327C42.4946 3.09952 42.0619 2.88327 41.6205 2.68052C41.1812 2.47889 40.7305 2.29177 40.2801 2.11139C40.2676 2.10602 40.2559 2.09802 40.2433 2.09302C38.8889 1.55302 37.4836 1.10664 36.0387 0.771143C35.99 0.759768 35.9411 0.745768 35.8919 0.734393C35.7159 0.694393 35.5366 0.661018 35.3594 0.624268C35.1031 0.571365 34.846 0.522401 34.5882 0.477393C33.883 0.350893 33.1801 0.240393 32.4585 0.165268C31.9819 0.115518 31.491 0.0632679 31.008 0.0366429C30.972 0.0348929 30.9341 0.0385179 30.898 0.0366429H30.8799C30.3784 0.0116804 29.8764 -0.000532069 29.3744 1.77665e-05L29.3756 0.00264276ZM27.4294 2.72002C28.2225 2.81877 29.0156 2.92627 29.8162 3.03214C32.5749 3.39664 35.1931 3.73027 37.6561 3.95014C40.2106 4.78139 42.5911 5.99677 44.743 7.51202C42.7127 7.64527 40.5515 7.69739 38.262 7.60377C35.2071 7.47502 32.0307 7.12214 28.8615 6.70414C26.6215 6.40864 24.508 6.09439 22.4721 5.84114C20.8669 5.641 19.2568 5.48186 17.6434 5.36389C20.6359 3.89914 23.9371 2.97114 27.4294 2.72002ZM16.8906 8.90739C18.9453 8.93139 21.0751 9.06552 23.2432 9.27452C25.4114 9.48364 27.599 9.77102 29.8162 10.064C32.9532 10.4786 35.9156 10.8641 38.6659 11.0739C41.7067 11.3099 44.5674 11.3445 47.1484 11.2758C47.7878 11.2588 48.3959 11.2329 48.9844 11.2024C49.7389 12.0159 50.4277 12.8885 51.0774 13.7911C49.9927 13.9851 48.8531 14.1649 47.5889 14.3053C44.809 14.614 41.6469 14.7743 38.262 14.6358C35.2071 14.507 32.0307 14.1541 28.8615 13.736C26.6215 13.4406 24.508 13.1263 22.4721 12.8731C20.4362 12.62 18.4839 12.4315 16.652 12.3224C15.3529 12.2415 14.0946 12.2026 12.8881 12.1939C11.6816 12.1851 10.5237 12.2064 9.43637 12.2489C9.21625 12.2579 9.02413 12.2749 8.81225 12.2856C9.769 11.1364 10.836 10.0651 11.9701 9.09102C13.6066 8.95404 15.2486 8.89272 16.8908 8.90727L16.8906 8.90739ZM16.8906 15.9393C18.9453 15.9633 21.0751 16.0975 23.2432 16.3065C25.4114 16.5155 27.599 16.803 29.8162 17.096C32.9532 17.5106 35.9156 17.896 38.6659 18.1058C41.7067 18.3419 44.5674 18.3764 47.1484 18.3078C49.563 18.2435 51.701 18.1005 53.5376 17.9405C53.8767 18.6555 54.1982 19.3774 54.4739 20.1255C52.5799 20.603 50.2694 21.0578 47.5889 21.3555C44.809 21.6641 41.6469 21.8063 38.262 21.6676C37.753 21.6463 37.2357 21.6268 36.7196 21.5943C34.7992 19.7809 32.2253 18.6566 29.3756 18.6566C27.4124 18.6566 25.5787 19.1859 23.9961 20.1071C23.4886 20.0363 22.9806 19.969 22.4721 19.9051C20.4361 19.652 18.4839 19.4635 16.652 19.3544C15.3529 19.2735 14.0946 19.2346 12.8881 19.2258C11.6816 19.2169 10.5237 19.2383 9.43637 19.2808C7.56575 19.3543 5.92988 19.4951 4.47913 19.6298C4.82475 18.7476 5.22038 17.8928 5.65413 17.0593C6.65988 16.8353 7.7275 16.6221 8.92237 16.4534C11.2645 16.1226 13.9703 15.9121 16.8908 15.9393H16.8906ZM16.8906 22.9713C18.1184 22.9854 19.3806 23.0495 20.6544 23.1365C19.9213 24.1599 19.3767 25.3218 19.0387 26.5699C18.2443 26.4946 17.4486 26.4334 16.652 26.3861C14.0538 26.2245 11.6111 26.2274 9.43637 26.3129C7.26162 26.3984 5.34263 26.5786 3.74475 26.7351C3.38288 26.7704 3.0965 26.7941 2.77163 26.8269C2.83913 26.1126 2.94275 25.4123 3.06537 24.7155C4.6495 24.2603 6.61375 23.8113 8.92237 23.4854C11.2645 23.1546 13.9703 22.944 16.8908 22.9713H16.8906ZM55.7041 24.7705C55.8179 25.4246 55.896 26.084 55.9611 26.7535C55.5661 26.8693 55.1477 26.9856 54.6944 27.1023C52.763 27.5991 50.3689 28.0786 47.5889 28.3875C45.3106 28.6405 42.7656 28.784 40.0614 28.7546C39.9882 27.4935 39.7064 26.3 39.235 25.1929C42.0606 25.39 44.7316 25.4039 47.1483 25.3398C49.7291 25.271 52.0276 25.1085 53.9416 24.9358C54.6199 24.8745 55.1425 24.8231 55.7041 24.7705ZM16.8908 30.0033C17.4816 30.0104 18.0864 30.0503 18.6899 30.0766C18.771 31.3404 19.0715 32.5316 19.5529 33.6385C18.5591 33.5435 17.5879 33.4739 16.652 33.4183C14.0538 33.2566 11.6111 33.2594 9.43637 33.3448C7.26162 33.4301 5.34263 33.5923 3.74475 33.7486C3.446 33.778 3.26 33.8009 3.02863 33.8221C2.91823 33.1646 2.8325 32.5031 2.77163 31.8391C2.84913 31.8151 2.91138 31.7893 2.992 31.7658C4.58788 31.3036 6.58 30.848 8.92237 30.5173C11.2647 30.1865 13.9703 29.976 16.8908 30.0033ZM55.9979 31.7658C55.9358 32.4725 55.8389 33.169 55.7225 33.8589C55.3937 33.9555 55.0609 34.0584 54.6944 34.1526C52.763 34.6494 50.3689 35.1106 47.5889 35.4195C44.8089 35.7284 41.6469 35.8703 38.262 35.7315C38.1773 35.7253 38.0911 35.7175 38.005 35.7134C38.7694 34.6734 39.3616 33.5034 39.7125 32.2249C42.3599 32.3968 44.8689 32.4508 47.1483 32.3901C49.7291 32.3215 52.0276 32.1406 53.9416 31.9679C54.7454 31.8954 55.3516 31.8288 55.9979 31.7659V31.7658ZM16.8908 37.0351C18.6059 37.0551 20.3795 37.157 22.1784 37.3106C24.0825 39.0411 26.5998 40.1014 29.3756 40.1014C31.235 40.1014 32.9736 39.6305 34.4981 38.7978C35.9332 38.9695 37.327 39.1179 38.6659 39.22C41.7067 39.4559 44.5674 39.4725 47.1484 39.4036C49.7294 39.3348 52.0276 39.1723 53.9416 38.9998L54.3454 38.9628C54.0059 39.8475 53.5986 40.6965 53.1704 41.5331C51.5479 41.8931 49.6865 42.2181 47.5889 42.4513C44.809 42.7598 41.6469 42.9018 38.262 42.7633C35.2071 42.6346 32.0307 42.2815 28.8615 41.8636C26.6215 41.5681 24.508 41.2539 22.4721 41.0008C20.4362 40.7476 18.4839 40.5773 16.652 40.4683C15.3529 40.3874 14.0946 40.3301 12.8881 40.3214C11.6816 40.3126 10.5237 40.352 9.43637 40.3949C7.84212 40.4574 6.44537 40.5599 5.15837 40.6703C4.82125 39.9483 4.49488 39.2224 4.22213 38.467C5.57525 38.1205 7.1405 37.8006 8.92237 37.549C11.2645 37.2183 13.9703 37.0078 16.8908 37.0349V37.0351ZM16.8908 44.0671C18.9453 44.0906 21.0751 44.2253 23.2432 44.4344C25.4114 44.6434 27.599 44.949 29.8162 45.2423C32.9532 45.6568 35.9156 46.0241 38.6659 46.2335C41.7067 46.4698 44.5674 46.5043 47.1484 46.4356C48.1221 46.4095 49.0953 46.3667 50.0675 46.307C49.1026 47.4838 48.0401 48.5771 46.8913 49.5753C44.2813 49.8305 41.3718 49.9228 38.262 49.7955C35.2071 49.6668 32.0307 49.332 28.8615 48.9143C26.6215 48.6186 24.508 48.286 22.4721 48.033C20.4361 47.7796 18.4839 47.5913 16.652 47.4821C15.3529 47.4014 14.0946 47.3806 12.8881 47.372C11.7538 47.3639 10.6685 47.372 9.63838 47.4084C8.88625 46.5856 8.19087 45.7134 7.54537 44.8013C7.99025 44.7248 8.4445 44.6484 8.92237 44.581C11.2646 44.2501 13.9703 44.0395 16.8908 44.0669V44.0671ZM15.0546 51.1175C15.6524 51.1016 16.2711 51.1121 16.8908 51.1175C18.9453 51.141 21.0751 51.2755 23.2432 51.4846C25.4114 51.6934 27.599 51.9628 29.8162 52.2558C32.9532 52.6705 35.9156 53.056 38.6659 53.2656C39.4821 53.329 40.2719 53.3711 41.0526 53.4125C37.7505 55.02 34.0751 55.9774 30.1835 56.093C29.7419 56.0379 29.3032 55.986 28.8615 55.9278C26.6215 55.6324 24.508 55.3363 22.4721 55.0833C22.2102 55.0504 21.9593 55.0219 21.701 54.9914C18.871 54.1445 16.2485 52.8281 13.8979 51.1541C14.28 51.1354 14.66 51.1276 15.0546 51.1178V51.1175Z" fill="#B3D3F1"/>
</svg>
