<svg width="32" height="32" viewBox="0 0 32 32" fill="none" xmlns="http://www.w3.org/2000/svg">
<path d="M29.75 12C29.75 12.1989 29.6709 12.3897 29.5303 12.5303C29.3896 12.671 29.1989 12.75 29 12.75H26.75V15C26.75 15.1989 26.6709 15.3897 26.5303 15.5303C26.3896 15.671 26.1989 15.75 26 15.75C25.801 15.75 25.6103 15.671 25.4696 15.5303C25.329 15.3897 25.25 15.1989 25.25 15V12.75H23C22.801 12.75 22.6103 12.671 22.4696 12.5303C22.329 12.3897 22.25 12.1989 22.25 12C22.25 11.8011 22.329 11.6103 22.4696 11.4697C22.6103 11.329 22.801 11.25 23 11.25H25.25V9C25.25 8.80109 25.329 8.61032 25.4696 8.46967C25.6103 8.32902 25.801 8.25 26 8.25C26.1989 8.25 26.3896 8.32902 26.5303 8.46967C26.6709 8.61032 26.75 8.80109 26.75 9V11.25H29C29.1989 11.25 29.3896 11.329 29.5303 11.4697C29.6709 11.6103 29.75 11.8011 29.75 12ZM18 6.75H19.25V8C19.25 8.19891 19.329 8.38968 19.4696 8.53033C19.6103 8.67098 19.801 8.75 20 8.75C20.1989 8.75 20.3896 8.67098 20.5303 8.53033C20.6709 8.38968 20.75 8.19891 20.75 8V6.75H22C22.1989 6.75 22.3896 6.67098 22.5303 6.53033C22.6709 6.38968 22.75 6.19891 22.75 6C22.75 5.80109 22.6709 5.61032 22.5303 5.46967C22.3896 5.32902 22.1989 5.25 22 5.25H20.75V4C20.75 3.80109 20.6709 3.61032 20.5303 3.46967C20.3896 3.32902 20.1989 3.25 20 3.25C19.801 3.25 19.6103 3.32902 19.4696 3.46967C19.329 3.61032 19.25 3.80109 19.25 4V5.25H18C17.801 5.25 17.6103 5.32902 17.4696 5.46967C17.329 5.61032 17.25 5.80109 17.25 6C17.25 6.19891 17.329 6.38968 17.4696 6.53033C17.6103 6.67098 17.801 6.75 18 6.75ZM26.9062 19.285C26.9935 19.3867 27.0519 19.5099 27.0754 19.6418C27.0989 19.7736 27.0867 19.9094 27.04 20.035C26.3612 21.8886 25.2265 23.5413 23.7405 24.8406C22.2545 26.1399 20.4651 27.0439 18.5375 27.4691C16.6099 27.8943 14.6062 27.827 12.7115 27.2735C10.8168 26.72 9.09201 25.6981 7.69647 24.3021C6.30092 22.9061 5.27955 21.181 4.72667 19.286C4.17378 17.3911 4.10719 15.3875 4.53305 13.46C4.95891 11.5326 5.86348 9.74346 7.16326 8.25787C8.46305 6.77228 10.1161 5.63809 11.97 4.96C12.0948 4.91458 12.2294 4.90313 12.3601 4.92681C12.4908 4.9505 12.6129 5.00847 12.7138 5.0948C12.8148 5.18112 12.891 5.29272 12.9347 5.41816C12.9784 5.5436 12.9879 5.67839 12.9625 5.80875C12.641 7.44001 12.6847 9.1222 13.0904 10.7346C13.4961 12.3469 14.2537 13.8495 15.3088 15.1344C16.3639 16.4194 17.6904 17.4548 19.1931 18.1663C20.6958 18.8779 22.3373 19.248 24 19.25C24.7355 19.2503 25.4694 19.1791 26.1912 19.0375C26.3216 19.0117 26.4566 19.021 26.5822 19.0645C26.7078 19.108 26.8197 19.1841 26.9062 19.285ZM25.11 20.7025C24.7416 20.7342 24.3716 20.75 24 20.75C20.6197 20.746 17.379 19.4015 14.9887 17.0112C12.5985 14.621 11.2539 11.3803 11.25 8C11.25 7.62917 11.2658 7.25917 11.2975 6.89C9.86513 7.63052 8.62771 8.69851 7.68575 10.0072C6.74379 11.3159 6.12387 12.8283 5.87634 14.4216C5.62882 16.0149 5.76068 17.6442 6.26122 19.177C6.76176 20.7097 7.61685 22.1028 8.75701 23.2429C9.89716 24.3831 11.2902 25.2382 12.823 25.7387C14.3558 26.2393 15.985 26.3711 17.5783 26.1236C19.1716 25.8761 20.6841 25.2562 21.9928 24.3142C23.3014 23.3722 24.3694 22.1348 25.11 20.7025Z" fill="#22C1C1"/>
</svg>
