<svg width="32" height="32" viewBox="0 0 32 32" fill="none" xmlns="http://www.w3.org/2000/svg">
<path d="M31 15.25H29.75V11C29.75 10.5359 29.5656 10.0908 29.2374 9.76256C28.9092 9.43437 28.4641 9.25 28 9.25H25.75V8C25.75 7.53587 25.5656 7.09075 25.2374 6.76256C24.9092 6.43437 24.4641 6.25 24 6.25H21C20.5359 6.25 20.0908 6.43437 19.7626 6.76256C19.4344 7.09075 19.25 7.53587 19.25 8V15.25H12.75V8C12.75 7.53587 12.5656 7.09075 12.2374 6.76256C11.9092 6.43437 11.4641 6.25 11 6.25H8C7.53587 6.25 7.09075 6.43437 6.76256 6.76256C6.43437 7.09075 6.25 7.53587 6.25 8V9.25H4C3.53587 9.25 3.09075 9.43437 2.76256 9.76256C2.43437 10.0908 2.25 10.5359 2.25 11V15.25H1C0.801088 15.25 0.610322 15.329 0.46967 15.4697C0.329018 15.6103 0.25 15.8011 0.25 16C0.25 16.1989 0.329018 16.3897 0.46967 16.5303C0.610322 16.671 0.801088 16.75 1 16.75H2.25V21C2.25 21.4641 2.43437 21.9092 2.76256 22.2374C3.09075 22.5656 3.53587 22.75 4 22.75H6.25V24C6.25 24.4641 6.43437 24.9092 6.76256 25.2374C7.09075 25.5656 7.53587 25.75 8 25.75H11C11.4641 25.75 11.9092 25.5656 12.2374 25.2374C12.5656 24.9092 12.75 24.4641 12.75 24V16.75H19.25V24C19.25 24.4641 19.4344 24.9092 19.7626 25.2374C20.0908 25.5656 20.5359 25.75 21 25.75H24C24.4641 25.75 24.9092 25.5656 25.2374 25.2374C25.5656 24.9092 25.75 24.4641 25.75 24V22.75H28C28.4641 22.75 28.9092 22.5656 29.2374 22.2374C29.5656 21.9092 29.75 21.4641 29.75 21V16.75H31C31.1989 16.75 31.3897 16.671 31.5303 16.5303C31.671 16.3897 31.75 16.1989 31.75 16C31.75 15.8011 31.671 15.6103 31.5303 15.4697C31.3897 15.329 31.1989 15.25 31 15.25ZM4 21.25C3.9337 21.25 3.87011 21.2237 3.82322 21.1768C3.77634 21.1299 3.75 21.0663 3.75 21V11C3.75 10.9337 3.77634 10.8701 3.82322 10.8232C3.87011 10.7763 3.9337 10.75 4 10.75H6.25V21.25H4ZM11.25 24C11.25 24.0663 11.2237 24.1299 11.1768 24.1768C11.1299 24.2237 11.0663 24.25 11 24.25H8C7.9337 24.25 7.87011 24.2237 7.82322 24.1768C7.77634 24.1299 7.75 24.0663 7.75 24V8C7.75 7.9337 7.77634 7.87011 7.82322 7.82322C7.87011 7.77634 7.9337 7.75 8 7.75H11C11.0663 7.75 11.1299 7.77634 11.1768 7.82322C11.2237 7.87011 11.25 7.9337 11.25 8V24ZM24.25 24C24.25 24.0663 24.2237 24.1299 24.1768 24.1768C24.1299 24.2237 24.0663 24.25 24 24.25H21C20.9337 24.25 20.8701 24.2237 20.8232 24.1768C20.7763 24.1299 20.75 24.0663 20.75 24V8C20.75 7.9337 20.7763 7.87011 20.8232 7.82322C20.8701 7.77634 20.9337 7.75 21 7.75H24C24.0663 7.75 24.1299 7.77634 24.1768 7.82322C24.2237 7.87011 24.25 7.9337 24.25 8V24ZM28.25 21C28.25 21.0663 28.2237 21.1299 28.1768 21.1768C28.1299 21.2237 28.0663 21.25 28 21.25H25.75V10.75H28C28.0663 10.75 28.1299 10.7763 28.1768 10.8232C28.2237 10.8701 28.25 10.9337 28.25 11V21Z" fill="#F69134"/>
</svg>
